<svg width="55" height="55" viewBox="0 0 55 55" fill="none" xmlns="http://www.w3.org/2000/svg">
<path d="M48.1399 12.1596C45.9713 12.9603 45.3861 14.699 46.3958 17.3872L49.1152 24.6336C48.1055 21.9455 48.6849 20.2068 50.8593 19.4061C51.8002 19.0572 52.9992 18.8685 54.4622 18.8342L54.4966 11.9709C53.5672 11.7535 52.6493 11.622 51.7371 11.5591V11.5877C50.2798 11.6277 49.0808 11.8165 48.1399 12.1596Z" fill="url(#paint0_linear_478_54)"/>
<path d="M44.3195 53.6879C46.4881 52.8872 47.0733 51.1485 46.0636 48.4604L43.3442 41.2139C44.3539 43.902 43.7687 45.6407 41.6001 46.4414C40.6592 46.7846 39.4602 46.979 37.9972 47.0133L37.957 53.8766C38.8864 54.094 39.8044 54.2255 40.7166 54.2884V54.2598C42.1795 54.2255 43.3786 54.0368 44.3195 53.6879Z" fill="url(#paint1_linear_478_54)"/>
<path d="M54.9959 42.6325C54.95 40.9681 54.5771 39.2008 53.8772 37.342L52.311 33.1783L52.3282 33.1726L50.2112 27.539L49.1211 24.6335L46.4018 17.387C45.392 14.6989 45.9715 12.9602 48.1458 12.1595C49.0867 11.8163 50.2858 11.6218 51.7487 11.5875V11.5589C49.4883 11.4045 47.2795 11.7133 45.1224 12.5083C43.4299 13.1318 42.0071 13.9668 40.8425 15.0134C40.7794 15.0706 40.722 15.1278 40.6646 15.185C38.3124 6.44005 30.2575 0 20.6823 0C9.2597 0 0 9.16249 0 20.464C0 31.7656 9.2597 40.9281 20.6823 40.9281C28.7028 40.9281 35.6561 36.4098 39.0869 29.8038L40.1655 32.6635L40.1483 32.6693L42.2653 38.3029L43.3553 41.2083L46.0747 48.4548C47.0845 51.143 46.4993 52.8816 44.3307 53.6824C43.3898 54.0255 42.1907 54.22 40.7278 54.2543V54.2829C42.9882 54.4373 45.197 54.1228 47.3599 53.3278C49.0523 52.7043 50.4751 51.8693 51.6397 50.8227C52.7986 49.776 53.6592 48.5635 54.2272 47.1851C54.7779 45.8182 55.0361 44.2968 54.9959 42.6325ZM29.9018 22.952C28.7085 29.9869 22.5296 35.3517 15.0829 35.3517C6.78126 35.3517 0.0516341 28.6886 0.0516341 20.4755C0.0516341 12.2624 6.78126 5.5993 15.0829 5.5993C22.5296 5.5993 28.7085 10.9641 29.9018 17.999C30.1198 18.7883 30.2346 19.6233 30.2346 20.4812C30.2403 21.3277 30.1198 22.1627 29.9018 22.952Z" fill="#00A651"/>
<path d="M20.672 29.9411C15.3882 29.9411 11.1025 25.703 11.1025 20.4698C11.1025 15.2365 15.3882 10.9984 20.672 10.9984C25.0896 10.9984 28.8073 13.9611 29.9088 17.9876C28.7155 10.9527 22.5366 5.58789 15.0898 5.58789C6.78823 5.58789 0.0585938 12.251 0.0585938 20.4641C0.0585938 28.6771 6.78823 35.3402 15.0898 35.3402C22.5366 35.3402 28.7155 29.9754 29.9088 22.9406C28.8073 26.9785 25.0896 29.9411 20.672 29.9411Z" fill="url(#paint2_linear_478_54)"/>
<defs>
<linearGradient id="paint0_linear_478_54" x1="55.8947" y1="15.6839" x2="47.0127" y2="19.0208" gradientUnits="userSpaceOnUse">
<stop stop-color="#27AAE1"/>
<stop offset="0.4938" stop-color="#2677BA"/>
<stop offset="1" stop-color="#243E8F"/>
</linearGradient>
<linearGradient id="paint1_linear_478_54" x1="36.5671" y1="50.1646" x2="45.4516" y2="46.827" gradientUnits="userSpaceOnUse">
<stop stop-color="#27AAE1"/>
<stop offset="0.2971" stop-color="#2680C1"/>
<stop offset="0.5974" stop-color="#255CA6"/>
<stop offset="0.8425" stop-color="#244695"/>
<stop offset="1" stop-color="#243E8F"/>
</linearGradient>
<linearGradient id="paint2_linear_478_54" x1="0.0522026" y1="20.4723" x2="29.9066" y2="20.4723" gradientUnits="userSpaceOnUse">
<stop stop-color="#27AAE1"/>
<stop offset="0.4938" stop-color="#2677BA"/>
<stop offset="1" stop-color="#243E8F"/>
</linearGradient>
</defs>
</svg>
